<svg xmlns="http://www.w3.org/2000/svg" width="426" height="600" viewBox="0 0 426 600"><rect width="100%" height="100%" fill="#DDDDDD"/><path fill="#999999" d="m164.925 226.8-9.75-15.45q5.1-4.5 11.18-8.55 6.07-4.05 13.12-7.05t15.3-4.72q8.25-1.73 17.85-1.73 13.05 0 23.78 3.6 10.72 3.6 18.37 10.28 7.65 6.67 11.85 16.12t4.2 21.15q0 11.4-3.3 19.73-3.3 8.32-8.25 14.47t-10.87 10.65q-5.93 4.5-11.18 8.47-5.25 3.98-9.07 7.81-3.83 3.82-4.58 8.62l-3.45 21.9h-25.35l-2.55-24.45q-.9-7.05 2.03-12.38 2.92-5.32 7.79-9.74 4.88-4.43 10.88-8.56 6-4.12 11.25-9 5.25-4.87 8.77-10.94 3.53-6.08 3.53-14.48 0-5.4-2.03-9.67-2.02-4.28-5.62-7.35-3.6-3.08-8.63-4.73-5.02-1.65-10.87-1.65-8.55 0-14.48 1.88-5.92 1.87-10.05 4.19-4.12 2.33-6.97 4.21-2.85 1.87-5.1 1.87-5.4 0-7.8-4.5m18.6 161.4q0-4.65 1.73-8.85 1.72-4.2 4.72-7.2t7.2-4.8 9-1.8 8.93 1.8q4.12 1.8 7.19 4.8 3.08 3 4.88 7.2t1.8 8.85q0 4.8-1.8 8.93-1.8 4.12-4.88 7.12-3.07 3-7.19 4.73-4.13 1.72-8.93 1.72t-9-1.72q-4.2-1.73-7.2-4.73t-4.72-7.12q-1.73-4.13-1.73-8.93"/></svg>